<svg width="113" height="33" viewBox="0 0 113 33" fill="none" xmlns="http://www.w3.org/2000/svg">
<mask id="path-1-outside-1_3_29" maskUnits="userSpaceOnUse" x="0" y="0" width="113" height="33" fill="black">
<rect fill="white" width="113" height="33"/>
<path d="M1 25.1951V1H8.8721C10.6998 1 12.1939 1.34261 13.3542 2.02782C14.5221 2.70516 15.3867 3.62271 15.9479 4.78049C16.5091 5.93826 16.7897 7.22993 16.7897 8.65549C16.7897 10.081 16.5091 11.3767 15.9479 12.5423C15.3943 13.708 14.5373 14.6373 13.3769 15.3304C12.2166 16.0156 10.7302 16.3582 8.9176 16.3582H3.27517V13.7591H8.8266C10.0779 13.7591 11.0828 13.5347 11.8412 13.0857C12.5996 12.6368 13.1494 12.0304 13.4907 11.2664C13.8396 10.4945 14.014 9.62424 14.014 8.65549C14.014 7.68674 13.8396 6.82038 13.4907 6.0564C13.1494 5.29243 12.5958 4.69385 11.8298 4.26067C11.0638 3.81961 10.0476 3.59909 8.78109 3.59909H3.82121V25.1951H1Z"/>
<path d="M26.1122 25.6204C25.005 25.6204 24.0001 25.4038 23.0976 24.9707C22.1951 24.5296 21.4785 23.8956 20.9476 23.0686C20.4167 22.2337 20.1513 21.2256 20.1513 20.0442C20.1513 19.0046 20.3484 18.1618 20.7428 17.516C21.1372 16.8623 21.6643 16.3504 22.3241 15.9802C22.9839 15.61 23.7119 15.3343 24.5082 15.1532C25.3121 14.9642 26.1198 14.8145 26.9313 14.7043C27.993 14.5625 28.8538 14.4562 29.5136 14.3853C30.181 14.3065 30.6664 14.1766 30.9697 13.9954C31.2807 13.8143 31.4361 13.4992 31.4361 13.0503V12.9558C31.4361 11.7901 31.129 10.8844 30.5147 10.2386C29.908 9.59273 28.9865 9.26982 27.7503 9.26982C26.4687 9.26982 25.4638 9.56123 24.7357 10.1441C24.0077 10.7269 23.4958 11.3491 23.2 12.0107L20.6518 11.0655C21.1068 9.96291 21.7136 9.10442 22.4719 8.49009C23.2379 7.86789 24.0722 7.43471 24.9746 7.19055C25.8847 6.93852 26.7796 6.8125 27.6593 6.8125C28.2205 6.8125 28.8652 6.88338 29.5932 7.02515C30.3289 7.15904 31.038 7.43864 31.7205 7.86395C32.4107 8.28925 32.9832 8.93115 33.4383 9.78963C33.8933 10.6481 34.1208 11.798 34.1208 13.2393V25.1951H31.4361V22.7378H31.2996C31.1176 23.1316 30.8142 23.553 30.3895 24.0019C29.9648 24.4508 29.3998 24.8328 28.6945 25.1479C27.9892 25.4629 27.1285 25.6204 26.1122 25.6204ZM26.5218 23.1159C27.5835 23.1159 28.4784 22.8993 29.2065 22.4661C29.9421 22.0329 30.4957 21.4737 30.8673 20.7885C31.2465 20.1033 31.4361 19.3826 31.4361 18.6265V16.0747C31.3224 16.2165 31.0721 16.3464 30.6853 16.4646C30.3061 16.5748 29.8663 16.6733 29.3657 16.7599C28.8728 16.8387 28.3912 16.9096 27.921 16.9726C27.4584 17.0277 27.083 17.0749 26.7948 17.1143C26.0971 17.2088 25.4448 17.3624 24.8381 17.5751C24.239 17.7799 23.7536 18.091 23.382 18.5084C23.018 18.9179 22.836 19.4771 22.836 20.186C22.836 21.1547 23.181 21.8872 23.8712 22.3834C24.5689 22.8717 25.4524 23.1159 26.5218 23.1159Z"/>
<path d="M40.1244 32C39.6694 32 39.2637 31.9606 38.9072 31.8819C38.5508 31.811 38.3043 31.7401 38.1678 31.6692L38.8503 29.2119C39.5026 29.3852 40.0789 29.4482 40.5795 29.4009C41.08 29.3537 41.5237 29.1213 41.9105 28.7039C42.3048 28.2943 42.6651 27.6288 42.9912 26.7073L43.4917 25.2896L37.0302 7.04878H39.9424L44.7658 21.5091H44.9478L49.7712 7.04878H52.6834L45.2663 27.8415C44.9326 28.7787 44.5193 29.5545 44.0264 30.1688C43.5334 30.791 42.9608 31.2518 42.3086 31.5511C41.664 31.8504 40.9359 32 40.1244 32Z"/>
<path d="M58.7297 18.5793L58.6842 15.1296H59.2302L66.8748 7.04878H70.1965L62.0514 15.6021H61.8239L58.7297 18.5793ZM56.227 25.1951V1H58.9117V25.1951H56.227ZM67.3298 25.1951L60.5043 16.2165L62.4155 14.279L70.7426 25.1951H67.3298Z"/>
<path d="M76.3367 1V25.1951H73.652V1H76.3367Z"/>
<path d="M86.3958 25.6204C85.2885 25.6204 84.2837 25.4038 83.3812 24.9707C82.4787 24.5296 81.762 23.8956 81.2311 23.0686C80.7003 22.2337 80.4348 21.2256 80.4348 20.0442C80.4348 19.0046 80.632 18.1618 81.0264 17.516C81.4207 16.8623 81.9478 16.3504 82.6076 15.9802C83.2674 15.61 83.9955 15.3343 84.7918 15.1532C85.5957 14.9642 86.4034 14.8145 87.2148 14.7043C88.2766 14.5625 89.1374 14.4562 89.7972 14.3853C90.4645 14.3065 90.9499 14.1766 91.2533 13.9954C91.5642 13.8143 91.7197 13.4992 91.7197 13.0503V12.9558C91.7197 11.7901 91.4125 10.8844 90.7982 10.2386C90.1915 9.59273 89.2701 9.26982 88.0339 9.26982C86.7522 9.26982 85.7473 9.56123 85.0193 10.1441C84.2912 10.7269 83.7793 11.3491 83.4835 12.0107L80.9354 11.0655C81.3904 9.96291 81.9971 9.10442 82.7555 8.49009C83.5215 7.86789 84.3557 7.43471 85.2582 7.19055C86.1683 6.93852 87.0632 6.8125 87.9429 6.8125C88.5041 6.8125 89.1487 6.88338 89.8768 7.02515C90.6124 7.15904 91.3215 7.43864 92.0041 7.86395C92.6942 8.28925 93.2668 8.93115 93.7218 9.78963C94.1769 10.6481 94.4044 11.798 94.4044 13.2393V25.1951H91.7197V22.7378H91.5832C91.4012 23.1316 91.0978 23.553 90.6731 24.0019C90.2484 24.4508 89.6834 24.8328 88.9781 25.1479C88.2728 25.4629 87.412 25.6204 86.3958 25.6204ZM86.8053 23.1159C87.867 23.1159 88.7619 22.8993 89.49 22.4661C90.2256 22.0329 90.7793 21.4737 91.1509 20.7885C91.5301 20.1033 91.7197 19.3826 91.7197 18.6265V16.0747C91.6059 16.2165 91.3556 16.3464 90.9689 16.4646C90.5897 16.5748 90.1498 16.6733 89.6493 16.7599C89.1563 16.8387 88.6747 16.9096 88.2045 16.9726C87.7419 17.0277 87.3665 17.0749 87.0783 17.1143C86.3806 17.2088 85.7284 17.3624 85.1217 17.5751C84.5225 17.7799 84.0372 18.091 83.6656 18.5084C83.3015 18.9179 83.1195 19.4771 83.1195 20.186C83.1195 21.1547 83.4646 21.8872 84.1547 22.3834C84.8524 22.8717 85.736 23.1159 86.8053 23.1159Z"/>
<path d="M111.681 11.1128L109.27 11.8216C109.118 11.4042 108.894 10.9986 108.599 10.6048C108.31 10.2031 107.916 9.87233 107.416 9.61242C106.915 9.35252 106.274 9.22256 105.493 9.22256C104.424 9.22256 103.533 9.47853 102.82 9.99047C102.114 10.4945 101.762 11.1364 101.762 11.9162C101.762 12.6092 102.004 13.1566 102.49 13.5583C102.975 13.96 103.734 14.2947 104.765 14.5625L107.359 15.2241C108.921 15.6179 110.085 16.2204 110.851 17.0316C111.617 17.835 112 18.8707 112 20.1387C112 21.1784 111.712 22.1077 111.135 22.9268C110.567 23.7459 109.77 24.3918 108.747 24.8643C107.723 25.3369 106.532 25.5732 105.174 25.5732C103.392 25.5732 101.917 25.1715 100.749 24.3681C99.5813 23.5648 98.8419 22.3913 98.531 20.8476L101.079 20.186C101.322 21.1626 101.781 21.8951 102.456 22.3834C103.138 22.8717 104.029 23.1159 105.129 23.1159C106.38 23.1159 107.374 22.8402 108.109 22.2889C108.853 21.7297 109.224 21.0602 109.224 20.2805C109.224 19.6504 109.012 19.1227 108.587 18.6974C108.163 18.2642 107.51 17.9413 106.631 17.7287L103.718 17.0198C102.118 16.626 100.943 16.0156 100.192 15.1886C99.4486 14.3538 99.077 13.3102 99.077 12.0579C99.077 11.034 99.3538 10.1283 99.9075 9.3407C100.469 8.5531 101.231 7.93483 102.194 7.4859C103.165 7.03697 104.264 6.8125 105.493 6.8125C107.222 6.8125 108.58 7.2063 109.566 7.9939C110.559 8.7815 111.264 9.82114 111.681 11.1128Z"/>
</mask>
<path d="M1 25.1951V1H8.8721C10.6998 1 12.1939 1.34261 13.3542 2.02782C14.5221 2.70516 15.3867 3.62271 15.9479 4.78049C16.5091 5.93826 16.7897 7.22993 16.7897 8.65549C16.7897 10.081 16.5091 11.3767 15.9479 12.5423C15.3943 13.708 14.5373 14.6373 13.3769 15.3304C12.2166 16.0156 10.7302 16.3582 8.9176 16.3582H3.27517V13.7591H8.8266C10.0779 13.7591 11.0828 13.5347 11.8412 13.0857C12.5996 12.6368 13.1494 12.0304 13.4907 11.2664C13.8396 10.4945 14.014 9.62424 14.014 8.65549C14.014 7.68674 13.8396 6.82038 13.4907 6.0564C13.1494 5.29243 12.5958 4.69385 11.8298 4.26067C11.0638 3.81961 10.0476 3.59909 8.78109 3.59909H3.82121V25.1951H1Z" stroke="white" stroke-width="2" mask="url(#path-1-outside-1_3_29)"/>
<path d="M26.1122 25.6204C25.005 25.6204 24.0001 25.4038 23.0976 24.9707C22.1951 24.5296 21.4785 23.8956 20.9476 23.0686C20.4167 22.2337 20.1513 21.2256 20.1513 20.0442C20.1513 19.0046 20.3484 18.1618 20.7428 17.516C21.1372 16.8623 21.6643 16.3504 22.3241 15.9802C22.9839 15.61 23.7119 15.3343 24.5082 15.1532C25.3121 14.9642 26.1198 14.8145 26.9313 14.7043C27.993 14.5625 28.8538 14.4562 29.5136 14.3853C30.181 14.3065 30.6664 14.1766 30.9697 13.9954C31.2807 13.8143 31.4361 13.4992 31.4361 13.0503V12.9558C31.4361 11.7901 31.129 10.8844 30.5147 10.2386C29.908 9.59273 28.9865 9.26982 27.7503 9.26982C26.4687 9.26982 25.4638 9.56123 24.7357 10.1441C24.0077 10.7269 23.4958 11.3491 23.2 12.0107L20.6518 11.0655C21.1068 9.96291 21.7136 9.10442 22.4719 8.49009C23.2379 7.86789 24.0722 7.43471 24.9746 7.19055C25.8847 6.93852 26.7796 6.8125 27.6593 6.8125C28.2205 6.8125 28.8652 6.88338 29.5932 7.02515C30.3289 7.15904 31.038 7.43864 31.7205 7.86395C32.4107 8.28925 32.9832 8.93115 33.4383 9.78963C33.8933 10.6481 34.1208 11.798 34.1208 13.2393V25.1951H31.4361V22.7378H31.2996C31.1176 23.1316 30.8142 23.553 30.3895 24.0019C29.9648 24.4508 29.3998 24.8328 28.6945 25.1479C27.9892 25.4629 27.1285 25.6204 26.1122 25.6204ZM26.5218 23.1159C27.5835 23.1159 28.4784 22.8993 29.2065 22.4661C29.9421 22.0329 30.4957 21.4737 30.8673 20.7885C31.2465 20.1033 31.4361 19.3826 31.4361 18.6265V16.0747C31.3224 16.2165 31.0721 16.3464 30.6853 16.4646C30.3061 16.5748 29.8663 16.6733 29.3657 16.7599C28.8728 16.8387 28.3912 16.9096 27.921 16.9726C27.4584 17.0277 27.083 17.0749 26.7948 17.1143C26.0971 17.2088 25.4448 17.3624 24.8381 17.5751C24.239 17.7799 23.7536 18.091 23.382 18.5084C23.018 18.9179 22.836 19.4771 22.836 20.186C22.836 21.1547 23.181 21.8872 23.8712 22.3834C24.5689 22.8717 25.4524 23.1159 26.5218 23.1159Z" stroke="white" stroke-width="2" mask="url(#path-1-outside-1_3_29)"/>
<path d="M40.1244 32C39.6694 32 39.2637 31.9606 38.9072 31.8819C38.5508 31.811 38.3043 31.7401 38.1678 31.6692L38.8503 29.2119C39.5026 29.3852 40.0789 29.4482 40.5795 29.4009C41.08 29.3537 41.5237 29.1213 41.9105 28.7039C42.3048 28.2943 42.6651 27.6288 42.9912 26.7073L43.4917 25.2896L37.0302 7.04878H39.9424L44.7658 21.5091H44.9478L49.7712 7.04878H52.6834L45.2663 27.8415C44.9326 28.7787 44.5193 29.5545 44.0264 30.1688C43.5334 30.791 42.9608 31.2518 42.3086 31.5511C41.664 31.8504 40.9359 32 40.1244 32Z" stroke="white" stroke-width="2" mask="url(#path-1-outside-1_3_29)"/>
<path d="M58.7297 18.5793L58.6842 15.1296H59.2302L66.8748 7.04878H70.1965L62.0514 15.6021H61.8239L58.7297 18.5793ZM56.227 25.1951V1H58.9117V25.1951H56.227ZM67.3298 25.1951L60.5043 16.2165L62.4155 14.279L70.7426 25.1951H67.3298Z" stroke="white" stroke-width="2" mask="url(#path-1-outside-1_3_29)"/>
<path d="M76.3367 1V25.1951H73.652V1H76.3367Z" stroke="white" stroke-width="2" mask="url(#path-1-outside-1_3_29)"/>
<path d="M86.3958 25.6204C85.2885 25.6204 84.2837 25.4038 83.3812 24.9707C82.4787 24.5296 81.762 23.8956 81.2311 23.0686C80.7003 22.2337 80.4348 21.2256 80.4348 20.0442C80.4348 19.0046 80.632 18.1618 81.0264 17.516C81.4207 16.8623 81.9478 16.3504 82.6076 15.9802C83.2674 15.61 83.9955 15.3343 84.7918 15.1532C85.5957 14.9642 86.4034 14.8145 87.2148 14.7043C88.2766 14.5625 89.1374 14.4562 89.7972 14.3853C90.4645 14.3065 90.9499 14.1766 91.2533 13.9954C91.5642 13.8143 91.7197 13.4992 91.7197 13.0503V12.9558C91.7197 11.7901 91.4125 10.8844 90.7982 10.2386C90.1915 9.59273 89.2701 9.26982 88.0339 9.26982C86.7522 9.26982 85.7473 9.56123 85.0193 10.1441C84.2912 10.7269 83.7793 11.3491 83.4835 12.0107L80.9354 11.0655C81.3904 9.96291 81.9971 9.10442 82.7555 8.49009C83.5215 7.86789 84.3557 7.43471 85.2582 7.19055C86.1683 6.93852 87.0632 6.8125 87.9429 6.8125C88.5041 6.8125 89.1487 6.88338 89.8768 7.02515C90.6124 7.15904 91.3215 7.43864 92.0041 7.86395C92.6942 8.28925 93.2668 8.93115 93.7218 9.78963C94.1769 10.6481 94.4044 11.798 94.4044 13.2393V25.1951H91.7197V22.7378H91.5832C91.4012 23.1316 91.0978 23.553 90.6731 24.0019C90.2484 24.4508 89.6834 24.8328 88.9781 25.1479C88.2728 25.4629 87.412 25.6204 86.3958 25.6204ZM86.8053 23.1159C87.867 23.1159 88.7619 22.8993 89.49 22.4661C90.2256 22.0329 90.7793 21.4737 91.1509 20.7885C91.5301 20.1033 91.7197 19.3826 91.7197 18.6265V16.0747C91.6059 16.2165 91.3556 16.3464 90.9689 16.4646C90.5897 16.5748 90.1498 16.6733 89.6493 16.7599C89.1563 16.8387 88.6747 16.9096 88.2045 16.9726C87.7419 17.0277 87.3665 17.0749 87.0783 17.1143C86.3806 17.2088 85.7284 17.3624 85.1217 17.5751C84.5225 17.7799 84.0372 18.091 83.6656 18.5084C83.3015 18.9179 83.1195 19.4771 83.1195 20.186C83.1195 21.1547 83.4646 21.8872 84.1547 22.3834C84.8524 22.8717 85.736 23.1159 86.8053 23.1159Z" stroke="white" stroke-width="2" mask="url(#path-1-outside-1_3_29)"/>
<path d="M111.681 11.1128L109.27 11.8216C109.118 11.4042 108.894 10.9986 108.599 10.6048C108.31 10.2031 107.916 9.87233 107.416 9.61242C106.915 9.35252 106.274 9.22256 105.493 9.22256C104.424 9.22256 103.533 9.47853 102.82 9.99047C102.114 10.4945 101.762 11.1364 101.762 11.9162C101.762 12.6092 102.004 13.1566 102.49 13.5583C102.975 13.96 103.734 14.2947 104.765 14.5625L107.359 15.2241C108.921 15.6179 110.085 16.2204 110.851 17.0316C111.617 17.835 112 18.8707 112 20.1387C112 21.1784 111.712 22.1077 111.135 22.9268C110.567 23.7459 109.77 24.3918 108.747 24.8643C107.723 25.3369 106.532 25.5732 105.174 25.5732C103.392 25.5732 101.917 25.1715 100.749 24.3681C99.5813 23.5648 98.8419 22.3913 98.531 20.8476L101.079 20.186C101.322 21.1626 101.781 21.8951 102.456 22.3834C103.138 22.8717 104.029 23.1159 105.129 23.1159C106.38 23.1159 107.374 22.8402 108.109 22.2889C108.853 21.7297 109.224 21.0602 109.224 20.2805C109.224 19.6504 109.012 19.1227 108.587 18.6974C108.163 18.2642 107.51 17.9413 106.631 17.7287L103.718 17.0198C102.118 16.626 100.943 16.0156 100.192 15.1886C99.4486 14.3538 99.077 13.3102 99.077 12.0579C99.077 11.034 99.3538 10.1283 99.9075 9.3407C100.469 8.5531 101.231 7.93483 102.194 7.4859C103.165 7.03697 104.264 6.8125 105.493 6.8125C107.222 6.8125 108.58 7.2063 109.566 7.9939C110.559 8.7815 111.264 9.82114 111.681 11.1128Z" stroke="white" stroke-width="2" mask="url(#path-1-outside-1_3_29)"/>
</svg>
