 <svg width="132" height="19" viewBox="0 0 132 19" fill="none" xmlns="http://www.w3.org/2000/svg">
<path d="M5.28409 18L0.511364 0.545454H2.65909L6.30682 14.7614H6.47727L10.1932 0.545454H12.5795L16.2955 14.7614H16.4659L20.1136 0.545454H22.2614L17.4886 18H15.3068L11.4545 4.09091H11.3182L7.46591 18H5.28409ZM27.2557 18.3068C26.4261 18.3068 25.6733 18.1506 24.9972 17.8381C24.321 17.5199 23.7841 17.0625 23.3864 16.4659C22.9886 15.8636 22.7898 15.1364 22.7898 14.2841C22.7898 13.5341 22.9375 12.9261 23.233 12.4602C23.5284 11.9886 23.9233 11.6193 24.4176 11.3523C24.9119 11.0852 25.4574 10.8864 26.054 10.7557C26.6563 10.6193 27.2614 10.5114 27.8693 10.4318C28.6648 10.3295 29.3097 10.2528 29.804 10.2017C30.304 10.1449 30.6676 10.0511 30.8949 9.92045C31.1278 9.78977 31.2443 9.5625 31.2443 9.23864V9.17045C31.2443 8.32955 31.0142 7.67614 30.554 7.21023C30.0994 6.74432 29.4091 6.51136 28.483 6.51136C27.5227 6.51136 26.7699 6.72159 26.2244 7.14205C25.679 7.5625 25.2955 8.01136 25.0739 8.48864L23.1648 7.80682C23.5057 7.01136 23.9602 6.39205 24.5284 5.94886C25.1023 5.5 25.7273 5.1875 26.4034 5.01136C27.0852 4.82955 27.7557 4.73864 28.4148 4.73864C28.8352 4.73864 29.3182 4.78977 29.8636 4.89204C30.4148 4.98864 30.946 5.19034 31.4574 5.49716C31.9744 5.80398 32.4034 6.26705 32.7443 6.88636C33.0852 7.50568 33.2557 8.33523 33.2557 9.375V18H31.2443V16.2273H31.142C31.0057 16.5114 30.7784 16.8153 30.4602 17.1392C30.142 17.4631 29.7188 17.7386 29.1903 17.9659C28.6619 18.1932 28.017 18.3068 27.2557 18.3068ZM27.5625 16.5C28.358 16.5 29.0284 16.3438 29.5739 16.0312C30.125 15.7188 30.5398 15.3153 30.8182 14.821C31.1023 14.3267 31.2443 13.8068 31.2443 13.2614V11.4205C31.1591 11.5227 30.9716 11.6165 30.6818 11.7017C30.3977 11.7812 30.0682 11.8523 29.6932 11.9148C29.3239 11.9716 28.9631 12.0227 28.6108 12.0682C28.2642 12.108 27.983 12.142 27.767 12.1705C27.2443 12.2386 26.7557 12.3494 26.3011 12.5028C25.8523 12.6506 25.4886 12.875 25.2102 13.1761C24.9375 13.4716 24.8011 13.875 24.8011 14.3864C24.8011 15.0852 25.0597 15.6136 25.5767 15.9716C26.0994 16.3239 26.7614 16.5 27.5625 16.5Z" fill="#13F037"/>
<path d="M51.245 6H49.1314C49.0064 5.39205 48.7876 4.85795 48.4751 4.39773C48.1683 3.9375 47.7933 3.55114 47.3501 3.23864C46.9126 2.92045 46.4268 2.68182 45.8928 2.52273C45.3587 2.36364 44.8018 2.28409 44.2223 2.28409C43.1655 2.28409 42.2081 2.55114 41.3501 3.08523C40.4979 3.61932 39.8189 4.40625 39.3132 5.44602C38.8132 6.4858 38.5632 7.76136 38.5632 9.27273C38.5632 10.7841 38.8132 12.0597 39.3132 13.0994C39.8189 14.1392 40.4979 14.9261 41.3501 15.4602C42.2081 15.9943 43.1655 16.2614 44.2223 16.2614C44.8018 16.2614 45.3587 16.1818 45.8928 16.0227C46.4268 15.8636 46.9126 15.6278 47.3501 15.3153C47.7933 14.9972 48.1683 14.608 48.4751 14.1477C48.7876 13.6818 49.0064 13.1477 49.1314 12.5455H51.245C51.0859 13.4375 50.7962 14.2358 50.3757 14.9403C49.9553 15.6449 49.4325 16.2443 48.8075 16.7386C48.1825 17.2273 47.4808 17.5994 46.7024 17.8551C45.9297 18.1108 45.103 18.2386 44.2223 18.2386C42.7337 18.2386 41.4098 17.875 40.2507 17.1477C39.0916 16.4205 38.1797 15.3864 37.5149 14.0455C36.8501 12.7045 36.5178 11.1136 36.5178 9.27273C36.5178 7.43182 36.8501 5.84091 37.5149 4.5C38.1797 3.15909 39.0916 2.125 40.2507 1.39773C41.4098 0.670454 42.7337 0.306818 44.2223 0.306818C45.103 0.306818 45.9297 0.434659 46.7024 0.690341C47.4808 0.946023 48.1825 1.32102 48.8075 1.81534C49.4325 2.30398 49.9553 2.90057 50.3757 3.60511C50.7962 4.30398 51.0859 5.10227 51.245 6ZM54.3878 18V4.90909H56.331V6.88636H56.4673C56.706 6.23864 57.1378 5.71307 57.7628 5.30966C58.3878 4.90625 59.0923 4.70454 59.8764 4.70454C60.0241 4.70454 60.2088 4.70739 60.4304 4.71307C60.652 4.71875 60.8196 4.72727 60.9332 4.73864V6.78409C60.8651 6.76705 60.7088 6.74148 60.4645 6.70739C60.2259 6.66761 59.973 6.64773 59.706 6.64773C59.0696 6.64773 58.5014 6.78125 58.0014 7.0483C57.5071 7.30966 57.1151 7.6733 56.8253 8.1392C56.5412 8.59943 56.3991 9.125 56.3991 9.71591V18H54.3878ZM68.4077 18.2727C67.1463 18.2727 66.0582 17.9943 65.1435 17.4375C64.2344 16.875 63.5327 16.0909 63.0384 15.0852C62.5497 14.0739 62.3054 12.8977 62.3054 11.5568C62.3054 10.2159 62.5497 9.03409 63.0384 8.01136C63.5327 6.98295 64.2202 6.18182 65.1009 5.60795C65.9872 5.02841 67.0213 4.73864 68.2031 4.73864C68.8849 4.73864 69.5582 4.85227 70.223 5.07954C70.8878 5.30682 71.4929 5.67614 72.0384 6.1875C72.5838 6.69318 73.0185 7.36364 73.3423 8.19886C73.6662 9.03409 73.8281 10.0625 73.8281 11.2841V12.1364H63.7372V10.3977H71.7827C71.7827 9.65909 71.6349 9 71.3395 8.42045C71.0497 7.84091 70.6349 7.38352 70.0952 7.0483C69.5611 6.71307 68.9304 6.54545 68.2031 6.54545C67.402 6.54545 66.7088 6.74432 66.1236 7.14205C65.544 7.53409 65.098 8.04545 64.7855 8.67614C64.473 9.30682 64.3168 9.98295 64.3168 10.7045V11.8636C64.3168 12.8523 64.4872 13.6903 64.8281 14.3778C65.1747 15.0597 65.6548 15.5795 66.2685 15.9375C66.8821 16.2898 67.5952 16.4659 68.4077 16.4659C68.9361 16.4659 69.4134 16.392 69.8395 16.2443C70.2713 16.0909 70.6435 15.8636 70.956 15.5625C71.2685 15.2557 71.5099 14.875 71.6804 14.4205L73.6236 14.9659C73.419 15.625 73.0753 16.2045 72.5923 16.7045C72.1094 17.1989 71.5128 17.5852 70.8026 17.8636C70.0923 18.1364 69.294 18.2727 68.4077 18.2727ZM80.7401 18.3068C79.9105 18.3068 79.1577 18.1506 78.4815 17.8381C77.8054 17.5199 77.2685 17.0625 76.8707 16.4659C76.473 15.8636 76.2741 15.1364 76.2741 14.2841C76.2741 13.5341 76.4219 12.9261 76.7173 12.4602C77.0128 11.9886 77.4077 11.6193 77.902 11.3523C78.3963 11.0852 78.9418 10.8864 79.5384 10.7557C80.1406 10.6193 80.7457 10.5114 81.3537 10.4318C82.1491 10.3295 82.794 10.2528 83.2884 10.2017C83.7884 10.1449 84.152 10.0511 84.3793 9.92045C84.6122 9.78977 84.7287 9.5625 84.7287 9.23864V9.17045C84.7287 8.32955 84.4986 7.67614 84.0384 7.21023C83.5838 6.74432 82.8935 6.51136 81.9673 6.51136C81.0071 6.51136 80.2543 6.72159 79.7088 7.14205C79.1634 7.5625 78.7798 8.01136 78.5582 8.48864L76.6491 7.80682C76.9901 7.01136 77.4446 6.39205 78.0128 5.94886C78.5866 5.5 79.2116 5.1875 79.8878 5.01136C80.5696 4.82955 81.2401 4.73864 81.8991 4.73864C82.3196 4.73864 82.8026 4.78977 83.348 4.89204C83.8991 4.98864 84.4304 5.19034 84.9418 5.49716C85.4588 5.80398 85.8878 6.26705 86.2287 6.88636C86.5696 7.50568 86.7401 8.33523 86.7401 9.375V18H84.7287V16.2273H84.6264C84.4901 16.5114 84.2628 16.8153 83.9446 17.1392C83.6264 17.4631 83.2031 17.7386 82.6747 17.9659C82.1463 18.1932 81.5014 18.3068 80.7401 18.3068ZM81.0469 16.5C81.8423 16.5 82.5128 16.3438 83.0582 16.0312C83.6094 15.7188 84.0241 15.3153 84.3026 14.821C84.5866 14.3267 84.7287 13.8068 84.7287 13.2614V11.4205C84.6435 11.5227 84.456 11.6165 84.1662 11.7017C83.8821 11.7812 83.5526 11.8523 83.1776 11.9148C82.8082 11.9716 82.4474 12.0227 82.0952 12.0682C81.7486 12.108 81.4673 12.142 81.2514 12.1705C80.7287 12.2386 80.2401 12.3494 79.7855 12.5028C79.3366 12.6506 78.973 12.875 78.6946 13.1761C78.4219 13.4716 78.2855 13.875 78.2855 14.3864C78.2855 15.0852 78.544 15.6136 79.0611 15.9716C79.5838 16.3239 80.2457 16.5 81.0469 16.5ZM96.1044 4.90909V6.61364H89.3203V4.90909H96.1044ZM91.2976 1.77273H93.3089V14.25C93.3089 14.8182 93.3913 15.2443 93.5561 15.5284C93.7266 15.8068 93.9425 15.9943 94.2038 16.0909C94.4709 16.1818 94.7521 16.2273 95.0476 16.2273C95.2692 16.2273 95.451 16.2159 95.593 16.1932C95.7351 16.1648 95.8487 16.142 95.9339 16.125L96.343 17.9318C96.2067 17.983 96.0163 18.0341 95.772 18.0852C95.5277 18.142 95.218 18.1705 94.843 18.1705C94.2749 18.1705 93.718 18.0483 93.1726 17.804C92.6328 17.5597 92.1839 17.1875 91.826 16.6875C91.4737 16.1875 91.2976 15.5568 91.2976 14.7955V1.77273ZM104.308 18.2727C103.126 18.2727 102.089 17.9915 101.197 17.429C100.31 16.8665 99.6172 16.0795 99.1172 15.0682C98.6229 14.0568 98.3757 12.875 98.3757 11.5227C98.3757 10.1591 98.6229 8.96875 99.1172 7.9517C99.6172 6.93466 100.31 6.14489 101.197 5.58239C102.089 5.01989 103.126 4.73864 104.308 4.73864C105.489 4.73864 106.523 5.01989 107.41 5.58239C108.302 6.14489 108.995 6.93466 109.489 7.9517C109.989 8.96875 110.239 10.1591 110.239 11.5227C110.239 12.875 109.989 14.0568 109.489 15.0682C108.995 16.0795 108.302 16.8665 107.41 17.429C106.523 17.9915 105.489 18.2727 104.308 18.2727ZM104.308 16.4659C105.205 16.4659 105.944 16.2358 106.523 15.7756C107.103 15.3153 107.532 14.7102 107.81 13.9602C108.089 13.2102 108.228 12.3977 108.228 11.5227C108.228 10.6477 108.089 9.83239 107.81 9.0767C107.532 8.32102 107.103 7.71023 106.523 7.24432C105.944 6.77841 105.205 6.54545 104.308 6.54545C103.41 6.54545 102.671 6.77841 102.092 7.24432C101.512 7.71023 101.083 8.32102 100.805 9.0767C100.526 9.83239 100.387 10.6477 100.387 11.5227C100.387 12.3977 100.526 13.2102 100.805 13.9602C101.083 14.7102 101.512 15.3153 102.092 15.7756C102.671 16.2358 103.41 16.4659 104.308 16.4659ZM113.31 18V4.90909H115.253V6.88636H115.389C115.628 6.23864 116.06 5.71307 116.685 5.30966C117.31 4.90625 118.014 4.70454 118.798 4.70454C118.946 4.70454 119.131 4.70739 119.352 4.71307C119.574 4.71875 119.741 4.72727 119.855 4.73864V6.78409C119.787 6.76705 119.631 6.74148 119.386 6.70739C119.148 6.66761 118.895 6.64773 118.628 6.64773C117.991 6.64773 117.423 6.78125 116.923 7.0483C116.429 7.30966 116.037 7.6733 115.747 8.1392C115.463 8.59943 115.321 9.125 115.321 9.71591V18H113.31ZM131.512 7.84091L129.705 8.35227C129.592 8.05114 129.424 7.75852 129.202 7.47443C128.987 7.18466 128.691 6.94602 128.316 6.75852C127.941 6.57102 127.461 6.47727 126.876 6.47727C126.075 6.47727 125.407 6.66193 124.873 7.03125C124.344 7.39489 124.08 7.85795 124.08 8.42045C124.08 8.92045 124.262 9.31534 124.626 9.60511C124.989 9.89489 125.558 10.1364 126.33 10.3295L128.273 10.8068C129.444 11.0909 130.316 11.5256 130.89 12.1108C131.464 12.6903 131.751 13.4375 131.751 14.3523C131.751 15.1023 131.535 15.7727 131.103 16.3636C130.677 16.9545 130.08 17.4205 129.313 17.7614C128.546 18.1023 127.654 18.2727 126.637 18.2727C125.302 18.2727 124.197 17.983 123.322 17.4034C122.447 16.8239 121.893 15.9773 121.66 14.8636L123.569 14.3864C123.751 15.0909 124.094 15.6193 124.6 15.9716C125.112 16.3239 125.779 16.5 126.603 16.5C127.54 16.5 128.285 16.3011 128.836 15.9034C129.393 15.5 129.671 15.017 129.671 14.4545C129.671 14 129.512 13.6193 129.194 13.3125C128.876 13 128.387 12.767 127.728 12.6136L125.546 12.1023C124.347 11.8182 123.467 11.3778 122.904 10.7812C122.347 10.179 122.069 9.42614 122.069 8.52273C122.069 7.78409 122.276 7.13068 122.691 6.5625C123.112 5.99432 123.683 5.5483 124.404 5.22443C125.131 4.90057 125.955 4.73864 126.876 4.73864C128.171 4.73864 129.188 5.02273 129.927 5.59091C130.671 6.15909 131.2 6.90909 131.512 7.84091Z" fill="white"/>
</svg>
 